<svg t="1755363994103" class="icon" viewBox="0 0 1024 1024" version="1.1" xmlns="http://www.w3.org/2000/svg" p-id="4971" width="200" height="200"><path d="M883.234595 372.947027c-205.647568-205.647568-540.229189-205.647568-745.876757 0L0 510.287568l140.765405 140.765405c102.815135 102.815135 237.872432 154.24 372.947027 154.24s270.114595-51.407568 372.947027-154.24l137.357838-137.357838-140.782702-140.748108z m-21.050811 253.647568c-192.155676 192.138378-504.804324 192.138378-696.96 0l-116.307027-116.307027 112.899459-112.89946c192.155676-192.138378 504.804324-192.138378 696.96 0l116.307027 116.307027-112.899459 112.89946z" fill="" p-id="4972"></path><path d="M494.218378 373.102703c-66.767568 0-121.081081 54.313514-121.081081 121.081081a17.297297 17.297297 0 0 0 34.594595 0c0-47.688649 38.797838-86.486486 86.486486-86.486487a17.297297 17.297297 0 0 0 0-34.594594z" fill="" p-id="4973"></path><path d="M511.515676 286.616216c-123.987027 0-224.864865 100.877838-224.864865 224.864865s100.877838 224.864865 224.864865 224.864865 224.864865-100.877838 224.864865-224.864865-100.860541-224.864865-224.864865-224.864865z m0 415.135135c-104.908108 0-190.27027-85.362162-190.270271-190.27027s85.362162-190.27027 190.270271-190.27027 190.27027 85.362162 190.27027 190.27027-85.344865 190.27027-190.27027 190.27027z" fill="" p-id="4974"></path></svg>