<svg t="1754464552241" class="icon" viewBox="0 0 1024 1024" version="1.1" xmlns="http://www.w3.org/2000/svg" p-id="17118" width="256" height="256"><path d="M956.79 540.965C941 369.848 781.1 246.22 558.79 246.22c-66.22 0-153.253 14.918-182.009 20.152-14.157-12.53-46.51-36.602-86.046-36.602-13.18 0-25.923 2.617-39.213 8.387-18.844 9.696-31.692 28.215-35.4 51.085-3.265 20.37 1.203 41.174 12.095 58.492-51.303 47.163-92.802 95.524-99.45 176.673-2.394 6.1-3.16 6.1-10.24 6.1-9.471 0-25.16 0.107-37.791 16.339-13.074 16.769-31.044 111.097-2.07 149.768l2.506 2.723c23.2 20.476 46.509 21.129 65.242 21.672 19.715 0.543 33.985 0.98 50.977 19.28 17.21 21.566 36.596 33.873 57.184 46.945 4.792 3.048 9.696 6.207 14.812 9.585-0.218 0.436-0.324 0.872-0.54 1.307-6.102 15.79-16.45 42.261-6.213 76.682l1.202 2.941c11.11 22.327 53.807 25.598 78.315 25.598 12.194 0 34.632-0.873 49.015-7.192l2.723-1.306c1.632 8.605 4.791 16.774 11.11 23.31 4.573 4.68 12.63 10.238 26.464 10.781 6.1 0.983 14.706 1.42 27.012 1.42 12.419 0 27.342-0.437 42.484-0.984l4.792-0.761c18.624-5.664 23.088-25.05 24.943-39.974 11.542 0.762 23.2 1.091 34.853 1.091 43.242 0 71.129-1.42 104.13-9.26-2.612 10.999-4.574 22.982 1.963 33.438 3.812 6.1 9.88 9.648 17.316 11.869 7.437 2.222 48.91 2.293 61.215 2.293 27.12 0 43.675-4.58 53.153-14.706 18.625-16.885 17.972-47.818 17.317-75.154-0.218-10.568-0.653-26.034 1.203-31.698 94.216-59.69 124.713-127.112 130.594-210.766 0.705-9.222 5.443-45.094 4.352-54.784zM802.124 775.69c-19.609 10.238-19.061 36.053-18.624 63.39 0.324 14.705 0.977 42.047-5.447 47.382l-1.638 1.634c-0.214 0.111-5.228 3.377-26.466 3.377-11.221 0-22.981-0.873-32.787-1.521-4.356-0.33-8.387-0.547-11.872-0.766 0.437-1.633 0.762-3.16 1.091-4.467 2.941-11.872 6.319-25.268-2.18-35.942-5.665-7.08-13.503-10.562-25.486-8.712l-2.287 0.543c-37.362 10.567-63.283 12.307-111.101 12.307-16.227 0-32.347-0.76-48.032-2.287l-1.857-0.106c-18.295 0-20.147 18.514-21.018 27.337-0.436 3.595-1.09 10.674-2.286 15.03-12.201 0.436-23.855 0.766-33.88 0.766-13.939 0-19.496-0.655-21.565-1.09l-5.228 0.111c-2.612-3.49-2.068-18.413-1.85-24.837 0.435-14.052 2.132-25.275-9.696-35.399-7.47-6.392-16.444-9.645-23.459-10.067-4.093-0.247-8.783 1.46-8.783 1.46-18.731 4.905-17.317 24.727-16.774 32.241 0.218 2.182 0.436 5.882 0.654 7.845-6.205 1.527-16.556 2.723-29.516 2.723-23.307 0-39.32-3.814-44.985-6.43-4.79-20.582 1.635-36.921 6.32-49.121 4.137-10.569 9.8-25.161-1.526-36.272l-2.287-1.957c-8.605-6.1-16.88-11.328-24.944-16.45-18.626-11.87-34.746-22.108-49.015-39.866-28.427-30.821-55.987-31.588-78.207-32.242-15.902-0.436-27.556-0.761-39.974-10.998-15.466-24.071-2.941-93.893 2.616-104.349 1.414-1.85 1.632-2.068 8.605-2.068 11.653-0.111 33.331-0.219 45.527-32.135l1.202-5.116c5.117-69.386 37.793-110.449 100.316-166.324l14.27-12.743-13.509-13.508c-10.998-11.11-16.226-26.796-13.721-42.043 1.85-11.221 7.621-20.152 14.7-23.854 7.52-3.159 15.36-4.791 23.312-4.791 35.946 0 66.332 31.803 66.55 32.13l7.084 7.514 10.237-1.957c1.09-0.219 109.247-21.243 184.402-21.243 212.833 0 355.74 111.427 355.74 277.21-0.002 107.717-28.429 162.29-112.626 215.66zM337.323 560.638c-32.23 0-58.453-26.221-58.453-58.453s26.222-58.452 58.453-58.452 58.453 26.221 58.453 58.452-26.222 58.453-58.453 58.453z m0-84.229c-14.213 0-25.775 11.564-25.775 25.776 0 14.213 11.563 25.777 25.775 25.777 14.212 0 25.776-11.564 25.776-25.777 0-14.212-11.564-25.776-25.776-25.776z m353.929-62.06c-2.36 0-4.757-0.514-7.029-1.598-24.728-11.807-56.138-18.31-88.444-18.31-29.809 0-58.182 5.338-82.057 15.436-8.302 3.514-17.896-0.37-21.411-8.683-3.515-8.31 0.371-17.896 8.682-21.411 27.866-11.789 60.645-18.02 94.787-18.02 37.616 0 73.07 7.435 102.525 21.499 8.143 3.887 11.592 13.64 7.704 21.784-2.806 5.87-8.658 9.303-14.757 9.303z m46.714-175.925a359.164 359.164 0 0 0-20.624-7.057l-7.537-2.325 3.757-5.588c5.725-8.517 8.99-17.82 9.7-27.653 2.702-37.326-32.831-70.422-79.21-73.779-46.377-3.356-86.304 24.28-89.006 61.606-0.542 7.499 0.447 14.981 2.94 22.242l2.267 6.606-8.415 0.243c-7.32 0.21-14.942 0.502-22.653 0.868l-5.914 0.279-1.374-4.693c-2.706-9.244-3.733-18.72-3.049-28.164 3.864-53.39 60.976-92.92 127.313-88.12s117.163 52.143 113.299 105.533c-0.963 13.305-5.212 25.972-12.63 37.649l-2.92 4.594-5.944-2.24z" fill="#ffffff" p-id="17119"></path></svg>