<svg t="1749042098029" class="icon" viewBox="0 0 1024 1024" version="1.1" xmlns="http://www.w3.org/2000/svg" p-id="2771" width="200" height="200"><path d="M482.467 512.39l32.234 32.233c13.33 13.33 34.941 13.33 48.271 0 13.33-13.33 13.33-34.942 0-48.271l-90.51-90.51c-13.33-13.33-34.941-13.33-48.271 0l-90.51 90.51c-13.33 13.33-13.33 34.941 0 48.271 13.33 13.33 34.942 13.33 48.272 0l32.247-32.247v209.812c0 18.85 15.282 34.133 34.133 34.133 18.852 0 34.134-15.282 34.134-34.134V512.39z m221.866 315.995a3.282 3.282 0 0 1-3.282 3.282H195.615a3.282 3.282 0 0 1-3.282-3.282V322.949a3.282 3.282 0 0 1 3.282-3.282h505.436a3.282 3.282 0 0 1 3.282 3.282v505.436z m85.334-505.436c0-48.941-39.675-88.616-88.616-88.616H195.615c-48.94 0-88.615 39.675-88.615 88.616v505.436c0 48.94 39.674 88.615 88.615 88.615h505.436c48.941 0 88.616-39.674 88.616-88.615V322.949zM363 191.667h469.333V661c0 23.564 19.103 42.667 42.667 42.667s42.667-19.103 42.667-42.667V191.667c0-47.129-38.205-85.334-85.334-85.334H363c-23.564 0-42.667 19.103-42.667 42.667s19.103 42.667 42.667 42.667z" fill="#1296db" p-id="2772"></path></svg>
