<svg t="1753096361748" class="icon" viewBox="0 0 1024 1024" version="1.1" xmlns="http://www.w3.org/2000/svg"
     p-id="18801" width="200" height="200">
    <path d="M1019 379.8c-11.3-33.5-39.7-57.6-74.2-62.9l-243.2-37.3L596 53.8C580.7 21.1 547.8 0 512 0c-35.7 0-68.6 21.1-84 53.8L322.3 279.7 79.2 317c-34.5 5.2-63 29.3-74.2 62.9-11.3 34-2.9 70.9 21.9 96.3l178.5 183.6L164 914.2c-5.8 35.5 9.3 71.8 38.6 92.7 15.8 11.1 34.5 16.8 53.3 16.8 15.3 0 30.7-3.7 44.5-11.3L512 894.9l211.9 117.5c13.7 7.6 29.1 11.6 44.5 11.6 19 0 37.4-5.9 53.3-17.1 29.1-20.8 44.2-57.1 38.4-92.6l-41.4-254.5 178.5-183.6c24.8-25.4 33.2-62.3 21.8-96.4z m-48.9 70L791.5 633.4l-13.3 13.7 3.1 18.8 41.4 254.5c3.5 21.3-5.5 43.1-22.8 55.4-9.4 6.6-20.3 10.2-31.5 10.2-9 0-18.1-2.4-26.1-6.8L530.4 861.7 512 851.5l-18.4 10.2L282 979.2c-7.9 4.4-17 6.7-26.2 6.7-11.3 0-22.5-3.5-31.3-9.7-17.6-12.5-26.6-34.4-23.1-55.7l41.4-254.4 3.1-18.8-13.3-13.7L54 449.8c-14.8-15.3-19.9-37.5-13.1-57.8 6.7-20 23.5-34.4 44-37.5l243.2-37.3 20-3.1 8.6-18.3L462.3 69.9c9.1-19.4 28.6-32 49.6-32 21.1 0 40.6 12.5 49.7 32l105.6 225.8 8.6 18.4 20 3.1L939 354.5c20.4 3.1 37.3 17.5 44 37.3 6.9 20.5 1.9 42.7-12.9 58z"
          fill="#2c2c2c" p-id="18802"></path>
    <path d="M518.4 370.4c-50.9 0-92.1 15.8-122.6 47.1-49.2 50.3-49.3 120.8-49.1 128.7 0.2 10.3 8.6 18.6 19 18.6h0.4c10.5-0.2 18.8-8.9 18.6-19.3-0.1-2.5-0.8-61.5 38.3-101.5 23.1-23.6 55.2-35.6 95.5-35.6 10.5 0 19-8.5 19-19s-8.6-19-19.1-19z"
          fill="#2c2c2c" p-id="18803"></path>
</svg>