<svg t="1747150468726" class="icon" viewBox="0 0 1024 1024" version="1.1" xmlns="http://www.w3.org/2000/svg"
     p-id="29580" width="200" height="200">
    <path d="M676.9 800.9c-13.8 0-25-11.2-25-25V168H104.5v607.9c0 13.8-11.2 25-25 25s-25-11.2-25-25V118h647.3v657.9c0.1 13.8-11.1 25-24.9 25z"
          fill="#1E62ED" p-id="29581"></path>
    <path d="M78.6 142.1a299.6 87.1 0 1 0 599.2 0 299.6 87.1 0 1 0-599.2 0Z" fill="#FFFFFF" p-id="29582"></path>
    <path d="M378.2 254.1c-82.3 0-160-9.4-218.8-26.5-30.1-8.7-54.1-19.2-71.4-31.1C59.6 177 53.6 156.1 53.6 142s6-35 34.4-54.5c17.3-11.9 41.3-22.3 71.4-31.1C218.2 39.4 295.9 30 378.2 30s160 9.4 218.8 26.5c30.1 8.7 54.1 19.2 71.4 31.1 28.4 19.5 34.4 40.4 34.4 54.5s-6 35-34.4 54.5c-17.3 11.9-41.3 22.3-71.4 31.1-58.8 17-136.5 26.4-218.8 26.4z m0-174.1c-77.7 0-150.5 8.7-204.9 24.5-57.3 16.7-69.7 34.1-69.7 37.6s12.4 20.9 69.7 37.6c54.4 15.8 127.1 24.5 204.9 24.5 77.7 0 150.5-8.7 204.9-24.5 57.3-16.7 69.7-34.1 69.7-37.6s-12.4-20.9-69.7-37.6C528.7 88.7 455.9 80 378.2 80z"
          fill="#1E62ED" p-id="29583"></path>
    <path d="M676.9 326.5c0 48.1-133.2 87.1-298.7 87.1s-298.7-39-298.7-87.1" fill="#FFFFFF" p-id="29584"></path>
    <path d="M378.2 438.6c-82.3 0-159.8-9.4-218.4-26.5-30-8.7-53.9-19.2-71.1-31.1-28.3-19.5-34.2-40.4-34.2-54.5 0-13.8 11.2-25 25-25s25 11.2 25 25c0 3.4 12.3 20.9 69.3 37.6 54.1 15.8 126.7 24.5 204.4 24.5s150.2-8.7 204.4-24.5c57-16.6 69.3-34.1 69.3-37.6 0-13.8 11.2-25 25-25s25 11.2 25 25c0 14.1-5.9 34.9-34.2 54.5-17.2 11.9-41.1 22.4-71.1 31.1-58.6 17.1-136.1 26.5-218.4 26.5z"
          fill="#1E62ED" p-id="29585"></path>
    <path d="M676.9 554.5c0 48.1-133.2 87.1-298.7 87.1s-298.7-39-298.7-87.1" fill="#FFFFFF" p-id="29586"></path>
    <path d="M378.2 666.6c-82.3 0-159.8-9.4-218.4-26.5-30-8.7-53.9-19.2-71.1-31.1-28.3-19.5-34.2-40.4-34.2-54.5 0-13.8 11.2-25 25-25s25 11.2 25 25c0 3.4 12.3 20.9 69.3 37.6 54.1 15.8 126.7 24.5 204.4 24.5s150.2-8.7 204.4-24.5c57-16.6 69.3-34.1 69.3-37.6 0-13.8 11.2-25 25-25s25 11.2 25 25c0 14.1-5.9 34.9-34.2 54.5-17.2 11.9-41.1 22.4-71.1 31.1-58.6 17-136.1 26.5-218.4 26.5z"
          fill="#1E62ED" p-id="29587"></path>
    <path d="M676.9 782.5c0 48.1-134.1 87.1-299.6 87.1s-297.7-39-297.7-87.1" fill="#FFFFFF" p-id="29588"></path>
    <path d="M377.3 894.5c-82.2 0-159.6-9.4-217.9-26.5-29.8-8.7-53.7-19.2-70.8-31.1-28.1-19.5-34-40.4-34-54.4 0-13.8 11.2-25 25-25s25 11.2 25 25c0 3.5 12.3 21 68.8 37.6 53.9 15.8 126.3 24.5 203.9 24.5 77.7 0 150.5-8.7 204.9-24.5 57.3-16.7 69.7-34.1 69.7-37.6 0-13.8 11.2-25 25-25s25 11.2 25 25c0 14.1-6 35-34.4 54.5-17.3 11.9-41.3 22.3-71.4 31.1-58.8 17-136.5 26.4-218.8 26.4z"
          fill="#1E62ED" p-id="29589"></path>
    <path d="M685.6 679.9m-254.2 0a254.2 254.2 0 1 0 508.4 0 254.2 254.2 0 1 0-508.4 0Z" fill="#FFFFFF"
          p-id="29590"></path>
    <path d="M685.6 959.1c-74.6 0-144.7-29-197.4-81.8-52.7-52.7-81.8-122.9-81.8-197.4s29-144.7 81.8-197.4c52.7-52.7 122.9-81.8 197.4-81.8s144.7 29 197.4 81.8c52.7 52.7 81.8 122.9 81.8 197.4s-29 144.7-81.8 197.4c-52.7 52.7-122.9 81.8-197.4 81.8z m0-508.5c-126.4 0-229.2 102.8-229.2 229.2S559.2 909 685.6 909s229.2-102.8 229.2-229.2-102.9-229.2-229.2-229.2z"
          fill="#1E62ED" p-id="29591"></path>
    <path d="M779.5 544l-68.3 116.2H765v25.7h-62.7v35.4H765v26h-62.7v51.5H670v-51.5h-65v-26h65v-35.4h-65v-25.7h55.5L592.9 544h36.4c31.6 57.7 50.8 94.3 57.6 109.8h0.7c2.3-6.4 8.6-19.2 18.9-38.5l38.7-71.3h34.3z"
          fill="#FD9437" p-id="29592"></path>
</svg>
