<svg t="1747150135286" class="icon" viewBox="0 0 1024 1024" version="1.1" xmlns="http://www.w3.org/2000/svg"
     p-id="20486" width="200" height="200">
    <path d="M1015.3 416.2C962.3 138.4 694-43.9 416.2 9.2c-277.8 53-460.1 321.3-407 599.1C21.3 674 46.5 736.7 83.3 792.5c11.9 17.9 36 22.8 53.8 10.9 17.9-11.9 22.8-36 10.9-53.8-96.1-146.9-94.5-337.2 3.9-482.5C216 171.3 316.2 105.4 429.6 84.4 616.7 48.5 805.5 138.8 895 307.1c89.5 168.3 58.8 375.2-75.6 510.3s-341.2 166.8-509.9 78.2c-19.2-10.1-42.9-2.8-53.1 16.4-10.1 19.2-2.8 42.9 16.4 53.1 73.6 38.7 155.5 58.8 238.7 58.5 32.2 0 64.3-3.2 95.9-9.4 277.2-53.3 459.4-320.4 407.9-598z"
          fill="#1296db" p-id="20487"></path>
    <path d="M469.9 582.6H333.5c-21.3 0-38.5 17.2-38.5 38.5s17.2 38.5 38.5 38.5h136.4v121.8c0 21.3 17.2 38.5 38.5 38.5s38.5-17.2 38.5-38.5V659.7h136.4c21.3 0 38.5-17.2 38.5-38.5s-17.2-38.5-38.5-38.5H547V508c0.2-2.6-0.1-5.2-0.8-7.7h137.1c13.8 0 26.5-7.3 33.4-19.3 6.9-11.9 6.9-26.6 0-38.5-6.9-11.9-19.6-19.3-33.4-19.3h-349c-21.3 0-38.5 17.2-38.5 38.5s17.2 38.5 38.5 38.5h137.1c-0.6 2.5-0.9 5.1-0.8 7.7v74.7h-0.7zM401.3 377.7c15.2 14.6 39.3 14.4 54.2-0.5 14.9-14.9 15.1-39 0.5-54.2l-83.2-83.2c-9.7-10.1-24.1-14.1-37.6-10.6s-24.1 14.1-27.6 27.6c-3.5 13.5 0.5 27.9 10.6 37.6l83.1 83.3zM606.3 377.7l83.2-83.2c15.1-15.1 15.1-39.6 0-54.7-15.1-15.1-39.6-15.1-54.7 0L551.6 323c-7.4 7.2-11.6 17-11.6 27.3s4.2 20.2 11.6 27.3c15.3 14.7 39.4 14.7 54.7 0.1z"
          fill="#1296db" p-id="20488"></path>
</svg>
