<svg t="1754302882512" class="icon" viewBox="0 0 1024 1024" version="1.1" xmlns="http://www.w3.org/2000/svg" p-id="9173" width="200" height="200"><path d="M600.96 677.92a329.12 329.12 0 1 0-94.08 68.16L606.72 880a58.4 58.4 0 0 0 93.6-69.76zM112 449.12a252.16 252.16 0 1 1 252.64 251.52A252.48 252.48 0 0 1 112 449.12z m829.76-187.68a39.04 39.04 0 0 0 0-77.6H743.2a39.04 39.04 0 0 0 0 77.6h198.56z m41.76 181.76a38.72 38.72 0 0 0-27.52-11.2H790.56a39.04 39.04 0 0 0 0 77.6h165.44a38.56 38.56 0 0 0 38.72-38.4 39.36 39.36 0 0 0-11.2-27.52z m-115.2 236.32a39.04 39.04 0 0 0 0 77.6h82.4a39.04 39.04 0 1 0 7.84-77.6 32 32 0 0 0-7.84 0z" fill="#4592D8" p-id="9174"></path></svg>