<svg t="1754212139943" class="icon" viewBox="0 0 1024 1024" version="1.1" xmlns="http://www.w3.org/2000/svg" p-id="1125"
     width="200" height="200">
    <path d="M850.7392 270.2848v248.3712h51.2V270.2848a69.9904 69.9904 0 0 0-69.888-69.9392h-31.5904v51.2h31.5904a18.7392 18.7392 0 0 1 18.688 18.7392z"
          fill="#1296db" p-id="1126"></path>
    <path d="M882.3296 554.496h-117.76V225.8944A128.9728 128.9728 0 0 0 635.7504 97.28H278.1696a128.9728 128.9728 0 0 0-128.8704 128.6144v328.6016h-7.6288a59.4432 59.4432 0 0 0-59.3408 59.392v192.256a115.2 115.2 0 0 0 115.0976 115.0976h629.1456a115.2 115.2 0 0 0 115.0976-115.0976V613.888a59.4432 59.4432 0 0 0-59.3408-59.392zM200.4992 225.8944A77.7216 77.7216 0 0 1 278.1696 148.48h357.5808a77.7216 77.7216 0 0 1 77.6704 77.6192v328.3968H675.84a66.56 66.56 0 0 0-66.56 66.56v32.256H414.72v-32.256a66.56 66.56 0 0 0-66.56-66.56H200.4992z m689.9712 580.2496a64 64 0 0 1-63.8976 63.8976H197.4272a64 64 0 0 1-63.8976-63.8976V613.888a8.192 8.192 0 0 1 8.1408-8.192H348.16a15.36 15.36 0 0 1 15.36 15.36v37.5808a46.08 46.08 0 0 0 46.08 46.08h205.824a46.08 46.08 0 0 0 46.08-46.08v-37.5808a15.36 15.36 0 0 1 15.36-15.36h206.2848a8.192 8.192 0 0 1 8.1408 8.192z"
          fill="#1296db" p-id="1127"></path>
    <path d="M296.3456 255.9488h323.4816v51.2H296.3456zM296.3456 396.6976h323.4816v51.2H296.3456zM350.2592 768.768h323.4816v51.2H350.2592z"
          fill="#1296db" p-id="1128"></path>
</svg>