<svg t="1748278249465" class="icon" viewBox="0 0 1365 1024" version="1.1" xmlns="http://www.w3.org/2000/svg" p-id="2652" width="200" height="200"><path d="M441.412267 32.836267a271.018667 271.018667 0 0 1 266.376533 321.1264h587.9808a60.757333 60.757333 0 0 1 60.962133 60.6208v425.984c0 33.5872-27.511467 60.757333-60.757333 60.757333h-309.179733c-16.7936 0-43.4176 4.846933-58.914134 10.717867l-122.538666 46.216533c-31.402667 11.810133-56.797867-6.007467-56.797867-39.594667v-17.339733h-60.8256a60.757333 60.757333 0 0 1-60.757333-60.757333V621.704533c-61.303467-32.768-128.477867-46.8992-179.541334-46.8992H447.146667l-5.802667 0.136534h-3.003733l3.140266-0.136534c-112.64 0-303.7184 68.744533-336.213333 253.5424a35.6352 35.6352 0 0 1-41.096533 28.672 35.362133 35.362133 0 0 1-28.603734-40.96C61.098667 671.197867 170.461867 574.122667 292.864 530.432A271.018667 271.018667 0 0 1 441.480533 32.836267z m824.32 381.883733h-547.84c-16.657067 0-30.173867 13.653333-30.173867 30.651733v364.544c0 16.861867 13.448533 30.583467 30.72 30.583467h30.037333c33.655467 0 60.893867 27.0336 60.893867 45.602133l91.136-34.816c15.633067-5.9392 41.7792-10.786133 58.9824-10.786133h305.7664c16.930133 0 30.72-13.653333 30.72-30.651733v-364.544a30.583467 30.583467 0 0 0-30.242133-30.583467zM1143.808 658.090667a30.378667 30.378667 0 1 1 0 60.757333h-303.991467a30.378667 30.378667 0 1 1 0-60.757333h303.991467z m0-121.6512a30.378667 30.378667 0 1 1 0 60.8256h-303.991467a30.378667 30.378667 0 1 1 0-60.757334h303.991467z m-551.7312-7.236267c11.741867 4.096 23.415467 8.6016 34.884267 13.653333v-41.3696c-10.8544 10.103467-22.528 19.387733-34.816 27.716267zM441.412267 103.560533a200.4992 200.4992 0 0 0-200.226134 200.2944 200.567467 200.567467 0 0 0 200.226134 200.2944l-2.730667-0.136533h2.8672l1.2288 0.136533A200.567467 200.567467 0 0 0 641.706667 303.786667a200.567467 200.567467 0 0 0-200.2944-200.2944z" fill="#8C8C8C" p-id="2653"></path></svg>
