<svg t="1754464281692" class="icon" viewBox="0 0 1024 1024" version="1.1" xmlns="http://www.w3.org/2000/svg" p-id="4610" width="200" height="200"><path d="M555.008 730.112h-87.04l-29.696-22.528-43.008-155.648 34.816-38.912c41.984 7.168 114.688 7.168 135.168-14.336l53.248 19.456c4.096 60.416-29.696 176.128-32.768 189.44l-30.72 22.528z m-64.512-61.44h39.936c7.168-26.624 16.384-64.512 21.504-97.28-28.672 7.168-60.416 8.192-86.016 7.168l24.576 90.112z" fill="#ffffff" p-id="4611"></path><path d="M390.144 769.024l-43.008-22.528-82.944-165.888-4.096-18.432V433.152c0-139.264 112.64-251.904 251.904-251.904s251.904 112.64 251.904 251.904v128L757.76 583.68l-78.848 122.88-27.648 18.432-261.12 44.032z m-48.128-217.088l64.512 130.048 211.968-34.816 62.464-98.304V433.152c0-94.208-75.776-169.984-169.984-169.984s-169.984 75.776-169.984 169.984v118.784zM362.24 792.55552l313.7536-48.22016 12.45184 80.96768-313.7536 48.2304zM441.30304 890.2656l187.2384-28.7744 12.4416 80.96768-187.2384 28.7744zM484.352 52.224h55.296v92.16h-55.296zM788.7872 131.38944l39.09632 39.10656-65.16736 65.16736-39.09632-39.10656zM299.78624 195.9936l-39.09632 39.09632-65.16736-65.16736 39.10656-39.09632z" fill="#ffffff" p-id="4612"></path></svg>