<svg t="1753527615441" class="icon" viewBox="0 0 1024 1024" version="1.1" xmlns="http://www.w3.org/2000/svg" p-id="6158" width="200" height="200"><path d="M322.8 621.3c18.6 0 33.7-15.1 33.7-33.7s-15.1-33.7-33.7-33.7-33.7 15.1-33.7 33.7 15.1 33.7 33.7 33.7z" fill="#FF4E7D" p-id="6159"></path><path d="M448.5 587.6m-33.7 0a33.7 33.7 0 1 0 67.4 0 33.7 33.7 0 1 0-67.4 0Z" fill="#FF4E7D" p-id="6160"></path><path d="M574.2 621.3c18.6 0 33.7-15.1 33.7-33.7s-15.1-33.7-33.7-33.7-33.7 15.1-33.7 33.7 15.1 33.7 33.7 33.7z" fill="#FF4E7D" p-id="6161"></path><path d="M699.9 587.6m-33.7 0a33.7 33.7 0 1 0 67.4 0 33.7 33.7 0 1 0-67.4 0Z" fill="#FF4E7D" p-id="6162"></path><path d="M867.8 322.2h-93.1L548.5 116.5c-20.5-18.6-51.4-18.7-71.9-0.1L248 322.2h-93.2c-29.6 0-53.6 24-53.6 53.6v270l0.1 3.1v100.2l-0.1 5.5v45c0 29.6 24 53.6 53.6 53.6h713c29.6 0 53.6-24 53.6-53.6V375.7c0-29.5-24-53.5-53.6-53.5zM509.9 153.3c1.4-1.3 3.7-1.3 5.1 0l185.8 168.8H322.3l187.6-168.8z m361.8 646.2c0 2.1-1.7 3.9-3.9 3.9h-713c-2.1 0-3.9-1.7-3.9-3.9v-43.9l-0.1-2.4 0.1-104.4v-273c0-2.1 1.7-3.9 3.9-3.9h99.1c2.5 0.3 4.4 0.3 6.8 0h501c1.7 0.3 3.3 0.3 4.9 0.3 0.8 0 1.6-0.1 2.4-0.3h98.7c2.1 0 3.9 1.7 3.9 3.9v423.7z" fill="#4E30DC" p-id="6163"></path></svg>