<svg t="1755080424782" class="icon" viewBox="0 0 1170 1024" version="1.1" xmlns="http://www.w3.org/2000/svg" p-id="40148" width="200" height="200"><path d="M918.674286 0H251.611429C112.859429 0 0 115.638857 0 257.755429v508.489142C0 908.361143 112.859429 1024 251.611429 1024h667.062857c138.752 0 251.611429-115.638857 251.611428-257.755429V257.755429C1170.139429 115.638857 1057.426286 0 918.674286 0zM1097.142857 761.197714C1097.142857 865.792 1014.052571 950.857143 912.091429 950.857143H258.194286C156.233143 950.857143 73.142857 865.718857 73.142857 761.197714V262.802286C73.142857 158.208 156.233143 73.142857 258.194286 73.142857h653.897143C1014.052571 73.142857 1097.142857 158.281143 1097.142857 262.802286v498.395428zM433.371429 460.434286c85.942857 0 155.794286-71.68 155.794285-159.524572 0-88.064-69.997714-159.524571-155.794285-159.524571-85.869714 0-155.648 71.68-155.648 159.451428 0 87.917714 69.924571 159.597714 155.648 159.597715z m362.569142-8.411429a78.189714 78.189714 0 0 0-65.682285-38.034286c-27.062857-0.438857-51.931429 13.092571-66.706286 36.059429l-104.594286 161.938286-54.857143-79.213715a77.531429 77.531429 0 0 0-130.413714 3.218286l-132.681143 211.748572a33.060571 33.060571 0 0 0-1.170285 32.768 30.866286 30.866286 0 0 0 27.428571 16.676571h682.422857a31.232 31.232 0 0 0 27.355429-16.530286 32.402286 32.402286 0 0 0-0.877715-32.621714L795.940571 452.022857zM324.754286 733.037714l101.741714-162.377143a15.140571 15.140571 0 0 1 13.165714-7.533714c3.291429 0 9.289143 0.731429 13.531429 6.948572l81.188571 117.321142c5.851429 8.557714 15.36 13.531429 25.6 13.531429h0.365715a31.232 31.232 0 0 0 25.673142-14.482286l129.901715-200.923428a15.36 15.36 0 0 1 13.604571-7.387429c2.706286 0 9.289143 0.877714 13.531429 7.826286l150.381714 247.076571H324.754286z" fill="#294E7D" p-id="40149"></path></svg>