<svg t="1743334312834" class="icon" viewBox="0 0 1024 1024" version="1.1" xmlns="http://www.w3.org/2000/svg" p-id="3493"
     width="200" height="200">
    <path d="M820.148148 288.009481a75.851852 75.851852 0 0 1 75.851852 75.851852v392.286815a75.851852 75.851852 0 0 1-75.851852 75.851852h-616.296296a75.851852 75.851852 0 0 1-75.851852-75.851852V287.990519h692.148148zM438.765037 441.078519a37.925926 37.925926 0 0 0-51.275852 15.739259l-86.091852 162.190222a37.925926 37.925926 0 0 0 33.298963 55.694222l349.525334 1.820445a37.925926 37.925926 0 0 0 32.199111-58.311111l-65.061926-102.172445a37.925926 37.925926 0 0 0-63.772445-0.341333l-31.383703 48.165926a18.962963 18.962963 0 0 1-31.781926 0l-71.661037-109.985185a37.925926 37.925926 0 0 0-13.994667-12.8z"
          fill="#0CCA8A" p-id="3494"></path>
    <path d="M203.851852 175.995259H436.148148a75.851852 75.851852 0 0 1 75.851852 75.851852v36.143408H128v-36.143408a75.851852 75.851852 0 0 1 75.851852-75.851852z"
          fill="#0CCA8A" fill-opacity=".5" p-id="3495"></path>
</svg>
