<svg t="1753527762655" class="icon" viewBox="0 0 1024 1024" version="1.1" xmlns="http://www.w3.org/2000/svg" p-id="9822" width="200" height="200"><path d="M917.868 348.184c-10.134-8.68-26.422-8.68-59.034-8.68v207.5c32.612 0 48.9 0 59.034-8.68C928 529.644 928 515.672 928 487.728v-88.914c0-27.978 0-41.948-10.132-50.63zM238.304 588.332a123.95 123.95 0 0 1-1.97-6.744c13.14 5.464 27.32 8.44 42.088 8.44h28.808l73.28 222.784c6.296 19.16 33.306 14.42 33.306-5.88V595.974c21.924 4.74 43.436 12.036 64.6 20.992v189.966c0 96.834-128.892 119.556-158.98 28.014l-81.132-246.614z" fill="#767BFA" p-id="9823"></path><path d="M680.59 151.544c48.418-23.966 92.754-26.526 129.204-4.15 33.754 20.716 52.186 58.03 63.01 93.41 19.33 63.296 20.594 142.504 20.62 187.026v2.824c0 2.312-0.004 4.52-0.008 6.618v11.966c0.004 2.096 0.008 4.306 0.008 6.618v2.824c-0.026 44.52-1.29 123.73-20.62 187.026-10.824 35.378-29.256 72.694-63.01 93.408-36.45 22.376-80.786 19.818-129.204-4.15-21.994-10.892-44.266-22.824-66.26-34.582-4.98-2.664-9.96-5.326-14.906-7.954-27.044-14.456-53.846-28.428-80.96-40.74-54.33-24.692-107.76-41.604-162.438-41.604h-89.398C173.46 610.084 98 535.35 98 443.254c0-92.094 75.46-166.83 168.628-166.83h89.4c54.674 0 108.106-16.91 162.436-41.604 27.114-12.31 53.916-26.282 80.96-40.74 4.946-2.626 9.926-5.29 14.906-7.952 21.994-11.794 44.266-23.69 66.26-34.584z m94.24 51.494c-10.27-6.294-28.67-10.652-64.566 7.09-20.96 10.376-42.054 21.684-63.98 33.408l-0.068 0.034c-5.05 2.698-10.168 5.43-15.32 8.196-27.22 14.526-55.612 29.36-84.766 42.608-56.162 25.52-117.306 46.1-182.98 47.516V544.62c65.674 1.42 126.818 21.996 182.98 47.518 29.154 13.246 57.548 28.08 84.764 42.606 5.154 2.768 10.272 5.5 15.32 8.196l0.07 0.036c21.926 11.722 43.02 23.032 63.98 33.406 35.896 17.742 54.296 13.384 64.566 7.09 12.97-7.988 25.212-26.248 34.514-56.716 17.31-56.626 17.796-131.57 17.78-175.344v-12.34V435.1c0.016-43.774-0.47-118.72-17.78-175.344-9.302-30.468-21.544-48.728-34.514-56.718z m-477.976 138.92h-30.226c-56.474 0-102.332 45.306-102.332 101.296 0 55.99 45.858 101.296 102.332 101.296h30.226V341.96z" fill="#ABAFD1" p-id="9824"></path></svg>