<svg t="1750149005838" class="icon" viewBox="0 0 1024 1024" version="1.1" xmlns="http://www.w3.org/2000/svg" p-id="5307" width="200" height="200"><path d="M993.701647 239.134118c0 18.853647-14.396235 34.153412-32.105412 34.153411-17.769412 0-32.165647-15.299765-32.165647-34.153411V68.547765h-160.587294c-17.709176 0-32.105412-15.299765-32.105412-34.153412 0-18.853647 14.396235-34.093176 32.105412-34.093177L963.764706 0c16.624941 0 30.117647 14.336 30.117647 31.984941v0.060235l-0.180706 207.088942zM254.976 68.547765H94.388706V239.134118c0 18.853647-14.396235 34.153412-32.105412 34.153411C44.513882 273.287529 30.117647 257.987765 30.117647 239.134118V32.045176C30.117647 14.336 43.610353 0 60.235294 0l194.680471 0.301176c17.709176 0 32.105412 15.239529 32.105411 34.093177 0 18.853647-14.396235 34.153412-32.105411 34.153412z m-192.752941 682.465882c17.468235 0.843294 31.382588 15.661176 32.165647 34.093177v170.646588h160.587294c17.709176 0 32.105412 15.299765 32.105412 34.153412 0 18.793412-14.396235 34.093176-32.105412 34.093176H60.235294c-16.624941 0-30.117647-14.336-30.117647-31.984941v-206.908235c0.783059-18.492235 14.757647-33.310118 32.165647-34.093177z m128.542117 136.493177c-17.468235-0.843294-31.322353-15.661176-32.165647-34.153412V170.887529c0.783059-18.492235 14.757647-33.310118 32.165647-34.093176H833.054118c17.408 0.783059 31.322353 15.600941 32.105411 34.093176v682.465883c-0.783059 18.552471-14.697412 33.310118-32.105411 34.153412H190.765176z m578.078118 68.246588h160.587294v-170.646588c0-18.793412 14.456471-34.093176 32.165647-34.093177 17.709176 0 32.105412 15.299765 32.105412 34.093177v204.8c-0.783059 18.492235-14.697412 33.249882-32.105412 34.093176h-192.752941c-17.709176 0-32.105412-15.299765-32.105412-34.153412 0-18.853647 14.396235-34.093176 32.105412-34.093176z" fill="#3871F5" p-id="5308"></path></svg>
