<svg t="1764925781661" class="icon" viewBox="0 0 1024 1024" version="1.1" xmlns="http://www.w3.org/2000/svg" p-id="8955" width="200" height="200"><path d="M512 912c-54 0-106.4-10.6-155.7-31.4-47.6-20.1-90.4-49-127.1-85.7-36.7-36.7-65.6-79.5-85.7-127.1C122.6 618.4 112 566 112 512s10.6-106.4 31.4-155.7c20.1-47.6 49-90.4 85.7-127.1 36.7-36.7 79.5-65.6 127.1-85.7C405.6 122.6 458 112 512 112s106.4 10.6 155.7 31.4c47.6 20.1 90.4 49 127.1 85.7 36.7 36.7 65.6 79.5 85.7 127.1C901.4 405.6 912 458 912 512s-10.6 106.4-31.4 155.7c-20.1 47.6-49 90.4-85.7 127.1-36.7 36.7-79.5 65.6-127.1 85.7C618.4 901.4 566 912 512 912z m0-744.3c-92 0-178.4 35.8-243.5 100.8-65 65-100.8 151.5-100.8 243.5s35.8 178.4 100.8 243.5c65 65 151.5 100.8 243.5 100.8s178.4-35.8 243.5-100.8c65-65 100.8-151.5 100.8-243.5s-35.8-178.4-100.8-243.5C690.4 203.5 604 167.7 512 167.7z" fill="#606060" p-id="8956"></path><path d="M780.4 456.3V512H512V260.4h55.7v195.9z" fill="#606060" p-id="8957"></path></svg>
