<svg t="1765095998959" class="icon" viewBox="0 0 1024 1024" version="1.1" xmlns="http://www.w3.org/2000/svg" p-id="2681" width="200" height="200"><path d="M195.594 827.74c-12.35-12.35-12.35-32.372 0-44.722l589.097-589.097c12.35-12.35 32.372-12.35 44.722 0 12.35 12.35 12.35 32.372 0 44.722L240.316 827.74c-12.35 12.349-32.372 12.349-44.722 0z" p-id="2682" fill="#ffffff"></path><path d="M830.661 828.922c-12.35 12.35-32.372 12.35-44.722 0L196.843 239.825c-12.35-12.35-12.35-32.372 0-44.722 12.35-12.35 32.372-12.35 44.722 0L830.661 784.2c12.35 12.349 12.35 32.372 0 44.722z" p-id="2683" fill="#ffffff"></path></svg>
