<svg t="1764927813333" class="icon" viewBox="0 0 1024 1024" version="1.1" xmlns="http://www.w3.org/2000/svg"
     p-id="49913" width="200" height="200">
    <path d="M519.4 361.86m-213.86 0a213.86 213.86 0 1 0 427.72 0 213.86 213.86 0 1 0-427.72 0Z" fill="#FBD874"
          p-id="49914"></path>
    <path d="M519.4 595.71c-62.47 0-121.19-24.33-165.36-68.49-44.17-44.17-68.49-102.9-68.49-165.36s24.33-121.19 68.49-165.36c44.17-44.17 102.9-68.5 165.36-68.5s121.19 24.33 165.36 68.5c44.17 44.17 68.49 102.9 68.49 165.36s-24.33 121.19-68.49 165.36c-44.17 44.17-102.9 68.49-165.36 68.49z m0-427.71c-106.89 0-193.86 86.96-193.86 193.86S412.5 555.72 519.4 555.72s193.86-86.96 193.86-193.86S626.3 168 519.4 168z"
          fill="#3B8686" p-id="49915"></path>
    <path d="M384.18 586.46h270.44c103.5 0 187.54 84.03 187.54 187.54v46.66c0 18.82-15.28 34.11-34.11 34.11h-577.3c-18.82 0-34.11-15.28-34.11-34.11V774c0-103.5 84.03-187.54 187.54-187.54z"
          fill="#CFF09E" p-id="49916"></path>
    <path d="M808.05 874.77h-577.3c-29.83 0-54.11-24.27-54.11-54.11V774c0-114.44 93.1-207.54 207.54-207.54h270.44c114.44 0 207.54 93.1 207.54 207.54v46.66c0 29.83-24.27 54.11-54.11 54.11zM384.18 606.46c-92.38 0-167.54 75.16-167.54 167.54v46.66c0 7.78 6.33 14.11 14.11 14.11h577.3c7.78 0 14.11-6.33 14.11-14.11V774c0-92.38-75.16-167.54-167.54-167.54H384.18z"
          fill="#3B8686" p-id="49917"></path>
</svg>
