<svg t="1754216121664" class="icon" viewBox="0 0 1024 1024" version="1.1" xmlns="http://www.w3.org/2000/svg" p-id="5559" width="200" height="200"><path d="M777.125287 661.481739h77.078261v55.095652h-103.457391v48.139131h103.457391v55.373913h-103.457391v82.921739h-55.373914V820.313043h-103.234782v-55.652173h103.234782v-48.139131h1.613914l-1.613914-2.114782v2.114782h-103.234782v-55.095652h71.234782l-57.711304-94.608696 47.193044-28.716521 66.782608 109.801739 73.572174-112.806957 46.024348 30.107826z" fill="#3B9DFF" p-id="5560"></path><path d="M696.986157 716.633043h-1.613914v-2.114782z" fill="#3B9DFF" p-id="5561"></path><path d="M696.986157 716.633043h-1.613914v-2.114782z" fill="#3B9DFF" p-id="5562"></path><path d="M926.996591 495.749565a13.30087 13.30087 0 0 0 0-3.060869V188.549565a38.956522 38.956522 0 0 0-0.445217-7.457391c-9.126957-119.04-235.965217-181.147826-460.299131-181.147826S14.801809 62.052174 5.730504 181.092174a38.956522 38.956522 0 0 0-0.445217 7.457391v611.561739c0 123.937391 231.791304 188.605217 461.022609 188.605218 31.276522 0 62.553043-1.168696 92.883478-3.728696a304.250435 304.250435 0 0 0 149.871304 38.956522 308.98087 308.98087 0 0 0 217.766957-528.250435z m-460.521739-425.73913c238.525217 0 390.733913 70.233043 390.733913 118.594782S705.00007 307.2 466.474852 307.2 75.51833 236.966957 75.51833 188.605217s152.153043-118.594783 390.956522-118.594782zM75.462678 293.286957c85.871304 55.318261 239.026087 83.812174 390.956522 83.812173s304.862609-28.493913 390.733913-83.812173v150.260869a306.086957 306.086957 0 0 0-147.97913-37.787826 309.092174 309.092174 0 0 0-290.615653 204.466087c-213.092174-8.626087-343.095652-72.848696-343.095652-117.648696z m390.956522 625.307826c-238.803478 0-390.956522-70.233043-390.956522-118.594783v-203.798261a723.478261 723.478261 0 0 0 326.789565 83.478261 287.888696 287.888696 0 0 0-2.114782 35.005217 308.813913 308.813913 0 0 0 76.8 203.798261z m242.754783 35.227826a239.026087 239.026087 0 1 1 239.026087-239.026087 239.304348 239.304348 0 0 1-238.970435 239.193043z" fill="#3B9DFF" p-id="5563"></path></svg>